<?xml version="1.0" encoding="UTF-8" standalone="no"?>
<svg
   version="1.1"
   id="svg1333"
   xml:space="preserve"
   width="507.6796"
   height="443.94254"
   viewBox="0 0 507.67959 443.94253"
   sodipodi:docname="figure-2.svg"
   inkscape:version="1.2.1 (9c6d41e, 2022-07-14)"
   xmlns:inkscape="http://www.inkscape.org/namespaces/inkscape"
   xmlns:sodipodi="http://sodipodi.sourceforge.net/DTD/sodipodi-0.dtd"
   xmlns="http://www.w3.org/2000/svg"
   xmlns:svg="http://www.w3.org/2000/svg"
   xmlns:rdf="http://www.w3.org/1999/02/22-rdf-syntax-ns#"
   xmlns:cc="http://creativecommons.org/ns#"
   xmlns:dc="http://purl.org/dc/elements/1.1/"><metadata
     id="metadata1339"><rdf:RDF><cc:Work
         rdf:about=""><dc:format>image/svg+xml</dc:format><dc:type
           rdf:resource="http://purl.org/dc/dcmitype/StillImage" /><dc:title /></cc:Work></rdf:RDF></metadata><defs
     id="defs1337"><clipPath
       clipPathUnits="userSpaceOnUse"
       id="clipPath1467"><path
         d="M 102.319,406.933 H 492.957 V 750.89 H 102.319 Z"
         id="path1465" /></clipPath><clipPath
       clipPathUnits="userSpaceOnUse"
       id="clipPath1475"><path
         d="M 239.654,514.538 H 356.78 V 412.64 H 239.654 Z"
         id="path1473" /></clipPath><clipPath
       clipPathUnits="userSpaceOnUse"
       id="clipPath1499"><path
         d="M 102.319,406.933 H 492.957 V 750.89 H 102.319 Z"
         id="path1497" /></clipPath><clipPath
       clipPathUnits="userSpaceOnUse"
       id="clipPath1507"><path
         d="M 237.982,744.968 H 355.108 V 643.069 H 237.982 Z"
         id="path1505" /></clipPath><clipPath
       clipPathUnits="userSpaceOnUse"
       id="clipPath1523"><path
         d="M 237.982,629.734 H 355.108 V 527.836 H 237.982 Z"
         id="path1521" /></clipPath><clipPath
       clipPathUnits="userSpaceOnUse"
       id="clipPath1539"><path
         d="M 106.697,629.734 H 223.823 V 527.836 H 106.697 Z"
         id="path1537" /></clipPath><clipPath
       clipPathUnits="userSpaceOnUse"
       id="clipPath1567"><path
         d="M 102.319,406.933 H 492.957 V 750.89 H 102.319 Z"
         id="path1565" /></clipPath><clipPath
       clipPathUnits="userSpaceOnUse"
       id="clipPath1575"><path
         d="M 367.622,629.309 H 484.748 V 527.41 H 367.622 Z"
         id="path1573" /></clipPath></defs><sodipodi:namedview
     pagecolor="#ffffff"
     bordercolor="#666666"
     borderopacity="1"
     objecttolerance="10"
     gridtolerance="10"
     guidetolerance="10"
     inkscape:pageopacity="0"
     inkscape:pageshadow="2"
     inkscape:window-width="1920"
     inkscape:window-height="968"
     id="namedview1335"
     showgrid="false"
     fit-margin-top="0"
     fit-margin-left="0"
     fit-margin-right="0"
     fit-margin-bottom="0"
     inkscape:zoom="0.89797953"
     inkscape:cx="78.509585"
     inkscape:cy="432.08112"
     inkscape:window-x="0"
     inkscape:window-y="25"
     inkscape:window-maximized="0"
     inkscape:current-layer="g1341"
     inkscape:showpageshadow="2"
     inkscape:pagecheckerboard="0"
     inkscape:deskcolor="#d1d1d1" /><g
     id="g1341"
     inkscape:groupmode="layer"
     inkscape:label="ai-for-science-an-emerging-agenda"
     transform="matrix(1.3333333,0,0,-1.3333333,-142.26266,993.85304)"><g
       id="g1433"
       transform="translate(354.1951,578.36)"><path
         d="M 0,0 H 18.355"
         style="fill:none;stroke:#1b56e8;stroke-width:0.75;stroke-linecap:butt;stroke-linejoin:miter;stroke-miterlimit:10;stroke-dasharray:none;stroke-opacity:1"
         id="path1435" /></g><g
       id="g1437"
       transform="translate(220.9179,578.36)"><path
         d="M 0,0 H 16.704"
         style="fill:none;stroke:#1b56e8;stroke-width:0.75;stroke-linecap:butt;stroke-linejoin:miter;stroke-miterlimit:10;stroke-dasharray:none;stroke-opacity:1"
         id="path1439" /></g><g
       id="g1441"
       transform="translate(221.267,582.7623)"><path
         d="m 0,0 h -5.083 l -2.542,-4.402 2.542,-4.403 H 0 l 2.542,4.403 z"
         style="fill:#1b56e8;fill-opacity:1;fill-rule:nonzero;stroke:none"
         id="path1443" /></g><g
       id="g1445"
       transform="translate(370.0084,574.3829)"><path
         d="M 0,0 H 5.083 L 7.625,4.402 5.083,8.805 H 0 L -2.542,4.402 Z"
         style="fill:#1b56e8;fill-opacity:1;fill-rule:nonzero;stroke:none"
         id="path1447" /></g><g
       id="g1449"
       transform="translate(295.632,648.0705)"><path
         d="M 0,0 -0.146,-18.478"
         style="fill:none;stroke:#1b56e8;stroke-width:0.75;stroke-linecap:butt;stroke-linejoin:miter;stroke-miterlimit:10;stroke-dasharray:none;stroke-opacity:1"
         id="path1451" /></g><g
       id="g1453"
       transform="translate(300.0141,645.494)"><path
         d="M 0,0 0.04,5.083 -4.342,7.66 -8.764,5.153 -8.804,0.07 -4.422,-2.507 Z"
         style="fill:#1b56e8;fill-opacity:1;fill-rule:nonzero;stroke:none"
         id="path1455" /></g><g
       id="g1457"
       transform="translate(291.2498,511.847)"><path
         d="M 0,0 -0.04,-5.083 4.342,-7.66 8.764,-5.153 8.804,-0.07 4.422,2.507 Z"
         style="fill:#1b56e8;fill-opacity:1;fill-rule:nonzero;stroke:none"
         id="path1459" /></g><g
       id="g1461"><g
         id="g1463"
         clip-path="url(#clipPath1467)"><g
           id="g1469"><g
             id="g1471" /><g
             id="g1483"><g
               clip-path="url(#clipPath1475)"
               opacity="0.199997"
               id="g1481"><g
                 transform="translate(269.3376,514.5381)"
                 id="g1479"><path
                   d="m 0,0 -29.684,-50.483 v -0.003 l 28.879,-50.948 58.563,-0.464 29.684,50.486 -28.879,50.948 z"
                   style="fill:#1b56e8;fill-opacity:1;fill-rule:nonzero;stroke:none"
                   id="path1477" /></g></g></g></g></g></g><text
       transform="matrix(0.99996856,-0.00792999,-0.00792999,-0.99996856,282.3686,474.0271)"
       style="font-variant:normal;font-weight:normal;font-stretch:normal;font-size:10px;font-family:'Helvetica Neue';-inkscape-font-specification:HelveticaNeue;writing-mode:lr-tb;fill:#1b56e8;fill-opacity:1;fill-rule:nonzero;stroke:none"
       id="text1491"><tspan
         x="0 6.4800096 12.410018 18.340027 20.56003 26.120037 31.860046"
         y="0"
         sodipodi:role="line"
         id="tspan1485">Adding </tspan><tspan
         x="-15.090022 -12.870019 -7.3100104 -2.3100033 3.0600045 6.3900094 8.6100121 13.980021 19.540028 24.910036 30.280045 35.280052 38.060055 41.21006 46.950069"
         y="11.760017"
         sodipodi:role="line"
         id="tspan1487">invariances to </tspan><tspan
         x="-27.41004 -21.48003 -16.110023 -12.960019 -7.5900111 -3.7000053 2.2300031 5.560008 7.7800112 12.780019 18.150026 23.710033 26.490038 35.02005 40.760059 46.690067 52.060074 54.280079"
         y="23.520035"
         sodipodi:role="line"
         id="tspan1489">data-driven models</tspan></text><g
       id="g1493"><g
         id="g1495"
         clip-path="url(#clipPath1499)"><g
           id="g1501"><g
             id="g1503" /><g
             id="g1515"><g
               clip-path="url(#clipPath1507)"
               opacity="0.199997"
               id="g1513"><g
                 transform="translate(237.9816,694.4832)"
                 id="g1511"><path
                   d="m 0,0 28.88,-50.949 58.563,-0.464 29.683,50.485 -28.879,50.949 -58.563,0.464 z"
                   style="fill:#1b56e8;fill-opacity:1;fill-rule:nonzero;stroke:none"
                   id="path1509" /></g></g></g></g><g
           id="g1517"><g
             id="g1519" /><g
             id="g1531"><g
               clip-path="url(#clipPath1523)"
               opacity="0.199997"
               id="g1529"><g
                 transform="translate(267.6654,629.7345)"
                 id="g1527"><path
                   d="m 0,0 -29.684,-50.485 28.88,-50.95 58.563,-0.463 29.683,50.485 -28.879,50.949 z"
                   style="fill:#1b56e8;fill-opacity:1;fill-rule:nonzero;stroke:none"
                   id="path1525" /></g></g></g></g><g
           id="g1533"><g
             id="g1535" /><g
             id="g1547"><g
               clip-path="url(#clipPath1539)"
               opacity="0.199997"
               id="g1545"><g
                 transform="translate(136.3806,629.7345)"
                 id="g1543"><path
                   d="m 0,0 -29.684,-50.485 28.88,-50.95 58.563,-0.463 29.683,50.483 v 0.003 L 58.563,-0.464 Z"
                   style="fill:#1b56e8;fill-opacity:1;fill-rule:nonzero;stroke:none"
                   id="path1541" /></g></g></g></g></g></g><text
       transform="matrix(0.99996856,-0.00792999,-0.00792999,-0.99996856,273.0313,697.0525)"
       style="font-variant:normal;font-weight:normal;font-stretch:normal;font-size:10px;font-family:'Helvetica Neue';-inkscape-font-specification:HelveticaNeue;writing-mode:lr-tb;fill:#1c55e8;fill-opacity:1;fill-rule:nonzero;stroke:none"
       id="text1559"><tspan
         x="0 6.4800096 8.7000122 17.230024 22.790033 25.010036 30.380043 33.530048 35.750053 41.490059 47.050068"
         y="0"
         sodipodi:role="line"
         id="tspan1549">Simulation </tspan><tspan
         x="-12.130017 -6.2000089 -0.83000118 4.1700058 9.5400133 15.470022 18.250027 20.47003 26.030037 28.990042 34.36005 37.511055 42.881062 48.441071 53.811077"
         y="11.760017"
         sodipodi:role="line"
         id="tspan1551">based inference</tspan><tspan
         x="108.89016 111.48016 117.04017 122.41018 124.63018 130.19019 136.12019 141.4902 144.2702 146.4902 152.05022 155.01022 160.75023 164.08023 172.61024 177.98026 181.13026 183.35027 189.09027 194.65028"
         y="-11.740017"
         sodipodi:role="line"
         id="tspan1553">Include information </tspan><tspan
         x="108.89016 111.11016 116.67017 119.45017 122.60017 128.16019 133.5302 136.3102 144.84021 150.58022 156.51022 161.88023 164.10023 169.10025 171.88025 177.25026 182.25026"
         y="2.2600033"
         sodipodi:role="line"
         id="tspan1555">in the models as </tspan><tspan
         x="108.89016 114.82017 118.15017 120.37017 126.11018 129.44019 132.22018 137.4102 142.9702 148.71022 156.29022 158.51022 163.88023 169.81024 175.55025"
         y="16.260023"
         sodipodi:role="line"
         id="tspan1557">prior knowledge</tspan></text><g
       id="g1561"><g
         id="g1563"
         clip-path="url(#clipPath1567)"><g
           id="g1569"><g
             id="g1571" /><g
             id="g1583"><g
               clip-path="url(#clipPath1575)"
               opacity="0.199997"
               id="g1581"><g
                 transform="translate(367.6221,578.8257)"
                 id="g1579"><path
                   d="m 0,0 v -0.003 l 28.879,-50.948 58.563,-0.464 29.684,50.486 -28.88,50.949 -58.563,0.463 z"
                   style="fill:#1b56e8;fill-opacity:1;fill-rule:nonzero;stroke:none"
                   id="path1577" /></g></g></g></g></g></g><text
       transform="matrix(0.99996856,-0.00792999,-0.00792999,-0.99996856,397.5629,581.9512)"
       style="font-variant:normal;font-weight:normal;font-stretch:normal;font-size:10px;font-family:'Helvetica Neue';-inkscape-font-specification:HelveticaNeue;writing-mode:lr-tb;fill:#1b56e8;fill-opacity:1;fill-rule:nonzero;stroke:none"
       id="text1597"><tspan
         x="0 6.1100087 14.640021 20.200029 22.420033 27.790041 30.940044 33.160049 38.900055 44.460064 47.240067 52.610077 58.170082 64.10009"
         y="0"
         sodipodi:role="line"
         id="tspan1585">Emulation and </tspan><tspan
         x="-12.310018 -7.3100104 -1.7500025 1.5800023 4.7300067 10.470016 16.210024 21.58003 24.730036 30.100044 32.880047 41.410061 47.150066 53.080078 58.450085 60.670086 62.890091 65.110092 70.670105"
         y="11.760017"
         sodipodi:role="line"
         id="tspan1587">surrogate modelling</tspan><tspan
         x="-270.80038 -264.32037 -258.76038 -253.02037 -244.49036 -239.12035 -233.56033 -230.41034 -228.19032 -222.63033 -216.89032 -214.11031 -208.1803 -202.81029 -199.66029 -194.29028"
         y="2.080003"
         sodipodi:role="line"
         id="tspan1589">Augmenting data </tspan><tspan
         x="-270.80038 -263.22037 -261.00037 -257.85037 -252.29036 -249.51036 -247.29036 -241.73035 -236.73035 -231.36034 -228.03033 -225.81033 -220.44032 -214.88031 -209.5103 -204.14029"
         y="13.84002"
         sodipodi:role="line"
         id="tspan1591">with invariances</tspan><tspan
         x="-125.80018 -123.21017 -117.65017 -114.50017 -109.13016 -103.39015 -100.06014 -94.69014 -91.540131 -89.320129 -83.760124 -78.020111"
         y="1.1400017"
         sodipodi:role="line"
         id="tspan1593">Integrating </tspan><tspan
         x="-137.2002 -131.27019 -125.53018 -117.00017 -111.63016 -109.41016 -103.85015 -101.07014 -98.850143 -93.290138 -88.290131 -86.070122 -80.330116 -74.770111 -71.620102"
         y="12.900019"
         sodipodi:role="line"
         id="tspan1595">domain insights</tspan></text><text
       transform="matrix(1,0,0,-1,126.6676,454.3846)"
       style="font-variant:normal;font-weight:normal;font-stretch:normal;font-size:10px;font-family:'Helvetica Neue';-inkscape-font-specification:HelveticaNeue;writing-mode:lr-tb;fill:#1d1d1b;fill-opacity:1;fill-rule:nonzero;stroke:none"
       id="text1603"><tspan
         x="0 2.5899999 8.1499996 13.52 15.74 21.299999 27.23 32.599998 35.380001 37.599998 43.16 46.119999 51.860001 55.189999 63.720001 69.089996 72.239998 74.459999 80.199997 85.760002"
         y="0"
         sodipodi:role="line"
         id="tspan1599">Include information </tspan><tspan
         x="0 2.22 7.7800002 10.56 16.49 21.860001 25.01 30.379999 33.16 36.119999 41.860001 45.189999 47.970001 51.119999 56.68 62.049999 64.830002 73.360001 79.099998 85.029999 90.400002"
         y="14"
         sodipodi:role="line"
         id="tspan1601">in data for the model</tspan></text><g
       id="g1605"
       transform="translate(397.0317,744.8898)"><path
         d="M 0,0 H 89.925 V -89.043"
         style="fill:none;stroke:#1b56e8;stroke-width:1;stroke-linecap:butt;stroke-linejoin:miter;stroke-miterlimit:10;stroke-dasharray:none;stroke-opacity:1"
         id="path1607" /></g><g
       id="g1609"
       transform="translate(108.3188,501.6419)"><path
         d="M 0,0 V -88.709 H 88.503"
         style="fill:none;stroke:#1b56e8;stroke-width:1;stroke-linecap:butt;stroke-linejoin:miter;stroke-miterlimit:10;stroke-dasharray:none;stroke-opacity:1"
         id="path1611" /></g><g
       id="g1613"
       transform="translate(295.6722,514.3538)"><path
         d="M 0,0 V 13.804"
         style="fill:none;stroke:#1b56e8;stroke-width:0.75;stroke-linecap:butt;stroke-linejoin:miter;stroke-miterlimit:10;stroke-dasharray:none;stroke-opacity:1"
         id="path1615" /></g></g></svg>
