<?xml version="1.0" encoding="UTF-8" standalone="no"?>
<svg
   xmlns:dc="http://purl.org/dc/elements/1.1/"
   xmlns:cc="http://creativecommons.org/ns#"
   xmlns:rdf="http://www.w3.org/1999/02/22-rdf-syntax-ns#"
   xmlns:svg="http://www.w3.org/2000/svg"
   xmlns="http://www.w3.org/2000/svg"
   xmlns:sodipodi="http://sodipodi.sourceforge.net/DTD/sodipodi-0.dtd"
   xmlns:inkscape="http://www.inkscape.org/namespaces/inkscape"
   version="1.1"
   id="svg1038"
   xml:space="preserve"
   width="642.51868"
   height="174.76706"
   viewBox="0 0 642.51867 174.76706"
   sodipodi:docname="figure-1.svg"
   inkscape:version="1.0.2 (e86c8708, 2021-01-15)"><metadata
     id="metadata1044"><rdf:RDF><cc:Work
         rdf:about=""><dc:format>image/svg+xml</dc:format><dc:type
           rdf:resource="http://purl.org/dc/dcmitype/StillImage" /><dc:title></dc:title></cc:Work></rdf:RDF></metadata><defs
     id="defs1042"><clipPath
       clipPathUnits="userSpaceOnUse"
       id="clipPath1120"><path
         d="m 56.693,624.89 h 481.89 V 755.966 H 56.693 Z"
         id="path1118" /></clipPath><clipPath
       clipPathUnits="userSpaceOnUse"
       id="clipPath1128"><path
         d="M 55.6929,756.966 H 539.583 V 623.89 H 55.6929 Z"
         id="path1126" /></clipPath><clipPath
       clipPathUnits="userSpaceOnUse"
       id="clipPath1132"><path
         d="m 56.693,624.89 h 481.89 V 755.966 H 56.693 Z"
         id="path1130" /></clipPath><clipPath
       clipPathUnits="userSpaceOnUse"
       id="clipPath1136"><path
         d="M 194.561,755.466 H 400.605 V 625.39 H 194.561 Z"
         id="path1134" /></clipPath><clipPath
       clipPathUnits="userSpaceOnUse"
       id="clipPath1140"><path
         d="M 56.5827,755.466 H 206.781 V 625.39 H 56.5827 Z"
         id="path1138" /></clipPath><clipPath
       clipPathUnits="userSpaceOnUse"
       id="clipPath1144"><path
         d="M 67.1748,755.966 H 218.528 V 624.89 H 67.1748 Z"
         id="path1142" /></clipPath><clipPath
       clipPathUnits="userSpaceOnUse"
       id="clipPath1148"><path
         d="M 67.175,624.89 H 218.528 V 755.966 H 67.175 Z"
         id="path1146" /></clipPath><clipPath
       clipPathUnits="userSpaceOnUse"
       id="clipPath1152"><path
         d="M 388.384,755.466 H 538.583 V 625.39 H 388.384 Z"
         id="path1150" /></clipPath><clipPath
       clipPathUnits="userSpaceOnUse"
       id="clipPath1156"><path
         d="M 376.638,755.966 H 527.991 V 624.89 H 376.638 Z"
         id="path1154" /></clipPath><clipPath
       clipPathUnits="userSpaceOnUse"
       id="clipPath1160"><path
         d="M 376.638,624.89 H 527.991 V 755.966 H 376.638 Z"
         id="path1158" /></clipPath></defs><sodipodi:namedview
     pagecolor="#ffffff"
     bordercolor="#666666"
     borderopacity="1"
     objecttolerance="10"
     gridtolerance="10"
     guidetolerance="10"
     inkscape:pageopacity="0"
     inkscape:pageshadow="2"
     inkscape:window-width="1499"
     inkscape:window-height="1050"
     id="namedview1040"
     showgrid="false"
     fit-margin-top="0"
     fit-margin-left="0"
     fit-margin-right="0"
     fit-margin-bottom="0"
     inkscape:zoom="0.84162638"
     inkscape:cx="321.26001"
     inkscape:cy="161.53155"
     inkscape:window-x="0"
     inkscape:window-y="25"
     inkscape:window-maximized="0"
     inkscape:current-layer="g1046" /><g
     id="g1046"
     inkscape:groupmode="layer"
     inkscape:label="ai-for-science-an-emerging-agenda"
     transform="matrix(1.3333333,0,0,-1.3333333,-75.590665,1007.9537)"><text
       transform="matrix(1,0,0,-1,529.2648,22.8898)"
       style="font-variant:normal;font-weight:normal;font-stretch:normal;font-size:9px;font-family:Helvetica;-inkscape-font-specification:Helvetica;writing-mode:lr-tb;fill:#3459ea;fill-opacity:1;fill-rule:nonzero;stroke:none"
       id="text1050"><tspan
         x="0 5.0040002 -473.26501 -467.26199 -462.258 -457.758 -452.754 -447.75 -445.75201 -440.74799 -435.74399 -433.242 -428.23801 -423.23401 -415.737 -410.733 -408.73499 -403.73099 -401.229 -396.729 -391.72501 -386.72101 -380.22299 -378.22501 -373.22101 -368.21701 -363.21301 -358.20901"
         y="0"
         sodipodi:role="line"
         id="tspan1048">30Encoding domain knowledge </tspan></text><g
       id="g1114"><g
         id="g1116"
         clip-path="url(#clipPath1120)"><g
           id="g1122"><g
             id="g1124" /><g
             id="g1260"><g
               clip-path="url(#clipPath1128)"
               id="g1258"><g
                 id="g1230"><g
                   clip-path="url(#clipPath1132)"
                   id="g1228"><g
                     id="g1170"><g
                       id="g1162" /><g
                       id="g1168"><g
                         clip-path="url(#clipPath1136)"
                         opacity="0.199997"
                         id="g1166"><path
                           d="M 194.561,625.39 H 400.604 V 755.465 H 194.561 Z"
                           style="fill:#1b56e9;fill-opacity:1;fill-rule:nonzero;stroke:none"
                           id="path1164" /></g></g></g><g
                     id="g1182"><g
                       id="g1172" /><g
                       id="g1180"><g
                         clip-path="url(#clipPath1140)"
                         opacity="0.199997"
                         id="g1178"><g
                           transform="translate(94.1328,755.4654)"
                           id="g1176"><path
                             d="m 0,0 -37.55,-65.036 v -0.003 l 37.549,-65.036 h 75.1 l 37.549,65.036 v 0.003 L 75.099,0 Z"
                             style="fill:#1b56e9;fill-opacity:1;fill-rule:nonzero;stroke:none"
                             id="path1174" /></g></g></g></g><g
                     id="g1198"><g
                       id="g1184" /><g
                       id="g1196"><g
                         clip-path="url(#clipPath1144)"
                         opacity="0.199997"
                         id="g1194"><g
                           id="g1192"><g
                             clip-path="url(#clipPath1148)"
                             id="g1190"><g
                               transform="translate(180.4008,755.4653)"
                               id="g1188"><path
                                 d="m 0,0 h -75.099 l -37.55,-65.038 37.55,-65.038 H 0 l 37.55,65.038 z"
                                 style="fill:none;stroke:#1b56e9;stroke-width:1;stroke-linecap:butt;stroke-linejoin:miter;stroke-miterlimit:10;stroke-dasharray:none;stroke-opacity:1"
                                 id="path1186" /></g></g></g></g></g></g><g
                     id="g1210"><g
                       id="g1200" /><g
                       id="g1208"><g
                         clip-path="url(#clipPath1152)"
                         opacity="0.199997"
                         id="g1206"><g
                           transform="translate(425.934,755.4654)"
                           id="g1204"><path
                             d="m 0,0 -37.551,-65.038 37.55,-65.037 h 75.1 L 112.648,-65.038 75.099,0 Z"
                             style="fill:#1b56e9;fill-opacity:1;fill-rule:nonzero;stroke:none"
                             id="path1202" /></g></g></g></g><g
                     id="g1226"><g
                       id="g1212" /><g
                       id="g1224"><g
                         clip-path="url(#clipPath1156)"
                         opacity="0.199997"
                         id="g1222"><g
                           id="g1220"><g
                             clip-path="url(#clipPath1160)"
                             id="g1218"><g
                               transform="translate(414.7643,755.4653)"
                               id="g1216"><path
                                 d="m 0,0 h 75.099 l 37.55,-65.038 -37.55,-65.038 H 0 l -37.55,65.038 z"
                                 style="fill:none;stroke:#1b56e9;stroke-width:1;stroke-linecap:butt;stroke-linejoin:miter;stroke-miterlimit:10;stroke-dasharray:none;stroke-opacity:1"
                                 id="path1214" /></g></g></g></g></g></g></g></g><text
                 transform="matrix(1,0,0,-1,105.5669,695.1992)"
                 style="font-variant:normal;font-weight:normal;font-stretch:normal;font-size:10px;font-family:'Helvetica Neue';-inkscape-font-specification:HelveticaNeue;writing-mode:lr-tb;fill:#1b56e9;fill-opacity:1;fill-rule:nonzero;stroke:none"
                 id="text1256"><tspan
                   x="0 7.04 12.41 15.56 20.93 24.82 30.75 34.080002 36.299999 41.299999 46.669998 52.23"
                   y="0"
                   sodipodi:role="line"
                   id="tspan1232">Data-driven </tspan><tspan
                   x="9.7200003 18.25 23.99 29.92 35.290001 37.509998"
                   y="12"
                   sodipodi:role="line"
                   id="tspan1234">models</tspan><tspan
                   x="333.81 340.29001 343.44 346.59 352.32999 357.89001 363.63 365.85001 370.85001"
                   y="-3.4300001"
                   sodipodi:role="line"
                   id="tspan1236">Strongly </tspan><tspan
                   x="325.47 334 339.37 344.73999 350.29999 355.67001 361.23001 363.45001 368.45001 371.60001 373.82001 379.19"
                   y="10.57"
                   sodipodi:role="line"
                   id="tspan1238">mechanistic </tspan><tspan
                   x="335.92999 344.45999 350.20001 356.13 361.5 363.72"
                   y="24.57"
                   sodipodi:role="line"
                   id="tspan1240">models</tspan><tspan
                   x="138.21001 143.77 149.14 156.72 159.5 165.24001 168.57001"
                   y="-14.97"
                   sodipodi:role="line"
                   id="tspan1242">Law or </tspan><tspan
                   x="132.92999 139.41 142.74001 144.96001 150.52 155.89 158.11 164.03999 166.25999 171.63"
                   y="-0.97000003"
                   sodipodi:role="line"
                   id="tspan1244">Principles</tspan><tspan
                   x="127.93 134.41 139.41 147.94 156.47 161.84 164.99001 168.32001 170.53999 175.91"
                   y="24.719999"
                   sodipodi:role="line"
                   id="tspan1246">Symmetries</tspan><tspan
                   x="213.66 220.88 226.25 231.81 236.81 242.17999 244.39999"
                   y="-13.87"
                   sodipodi:role="line"
                   id="tspan1248">Causal </tspan><tspan
                   x="202.17999 205.33 210.7 212.92 218.28999 221.44 223.66 229.39999 234.96001 239.96001 245.52 247.74001 253.67"
                   y="0.13"
                   sodipodi:role="line"
                   id="tspan1250">relationships</tspan><tspan
                   x="202.78 210.38 215.94 221.31 223.53 225.75 228.89999 234.27 237.42 239.64 244.64 250.00999"
                   y="24.719999"
                   sodipodi:role="line"
                   id="tspan1252">Qualitative </tspan><tspan
                   x="202.78 207.97 213.53 219.27 226.85001 229.07001 234.44 240.37 246.11"
                   y="38.720001"
                   sodipodi:role="line"
                   id="tspan1254">knowledge</tspan></text></g></g></g></g></g></g></svg>
