<?xml version="1.0" encoding="UTF-8" standalone="no"?>
<svg
   xmlns:dc="http://purl.org/dc/elements/1.1/"
   xmlns:cc="http://creativecommons.org/ns#"
   xmlns:rdf="http://www.w3.org/1999/02/22-rdf-syntax-ns#"
   xmlns:svg="http://www.w3.org/2000/svg"
   xmlns="http://www.w3.org/2000/svg"
   xmlns:sodipodi="http://sodipodi.sourceforge.net/DTD/sodipodi-0.dtd"
   xmlns:inkscape="http://www.inkscape.org/namespaces/inkscape"
   version="1.1"
   id="svg2196"
   xml:space="preserve"
   width="619.44"
   height="471.47998"
   viewBox="0 0 619.44 471.47997"
   sodipodi:docname="figure-3.svg"
   inkscape:version="1.0.2 (e86c8708, 2021-01-15)"><metadata
     id="metadata2202"><rdf:RDF><cc:Work
         rdf:about=""><dc:format>image/svg+xml</dc:format><dc:type
           rdf:resource="http://purl.org/dc/dcmitype/StillImage" /><dc:title></dc:title></cc:Work></rdf:RDF></metadata><defs
     id="defs2200"><clipPath
       clipPathUnits="userSpaceOnUse"
       id="clipPath2304"><path
         d="m 56.693,116.89 h 481.89 V 480.078 H 56.693 Z"
         id="path2302" /></clipPath><clipPath
       clipPathUnits="userSpaceOnUse"
       id="clipPath2312"><path
         d="M 55.6928,481.078 H 539.583 V 112.464 H 55.6928 Z"
         id="path2310" /></clipPath><clipPath
       clipPathUnits="userSpaceOnUse"
       id="clipPath2316"><path
         d="m 56.693,113.464 h 481.89 V 480.078 H 56.693 Z"
         id="path2314" /></clipPath><clipPath
       clipPathUnits="userSpaceOnUse"
       id="clipPath2320"><path
         d="M 195.157,440.347 H 395.36 V 164.237 H 195.157 Z"
         id="path2318" /></clipPath><clipPath
       clipPathUnits="userSpaceOnUse"
       id="clipPath2324"><path
         d="M 195.157,164.237 H 395.36 V 440.348 H 195.157 Z"
         id="path2322" /></clipPath><clipPath
       clipPathUnits="userSpaceOnUse"
       id="clipPath2328"><path
         d="m 56.693,113.464 h 481.89 V 480.078 H 56.693 Z"
         id="path2326" /></clipPath><clipPath
       clipPathUnits="userSpaceOnUse"
       id="clipPath2332"><path
         d="M 300.472,274.935 H 395.46 V 192.673 H 300.472 Z"
         id="path2330" /></clipPath><clipPath
       clipPathUnits="userSpaceOnUse"
       id="clipPath2336"><path
         d="m 56.693,113.464 h 481.89 V 480.078 H 56.693 Z"
         id="path2334" /></clipPath><clipPath
       clipPathUnits="userSpaceOnUse"
       id="clipPath2340"><path
         d="m 194.846,274.935 h 94.988 v -82.262 h -94.988 z"
         id="path2338" /></clipPath><clipPath
       clipPathUnits="userSpaceOnUse"
       id="clipPath2344"><path
         d="m 56.693,113.464 h 481.89 V 480.078 H 56.693 Z"
         id="path2342" /></clipPath><clipPath
       clipPathUnits="userSpaceOnUse"
       id="clipPath2348"><path
         d="m 194.791,410.58 h 94.988 v -82.262 h -94.988 z"
         id="path2346" /></clipPath><clipPath
       clipPathUnits="userSpaceOnUse"
       id="clipPath2352"><path
         d="m 300.416,410.58 h 94.988 v -82.262 h -94.988 z"
         id="path2350" /></clipPath></defs><sodipodi:namedview
     pagecolor="#ffffff"
     bordercolor="#666666"
     borderopacity="1"
     objecttolerance="10"
     gridtolerance="10"
     guidetolerance="10"
     inkscape:pageopacity="0"
     inkscape:pageshadow="2"
     inkscape:window-width="1681"
     inkscape:window-height="1199"
     id="namedview2198"
     showgrid="false"
     fit-margin-top="0"
     fit-margin-left="0"
     fit-margin-right="0"
     fit-margin-bottom="0"
     inkscape:zoom="0.89797953"
     inkscape:cx="317.99148"
     inkscape:cy="70.887841"
     inkscape:window-x="0"
     inkscape:window-y="25"
     inkscape:window-maximized="0"
     inkscape:current-layer="g2204" /><g
     id="g2204"
     inkscape:groupmode="layer"
     inkscape:label="ai-for-science-an-emerging-agenda"
     transform="matrix(1.3333333,0,0,-1.3333333,-78.859197,632.14783)"><g
       id="g2298"><g
         id="g2300"
         clip-path="url(#clipPath2304)"><g
           id="g2306"><g
             id="g2308" /><g
             id="g2498"><g
               clip-path="url(#clipPath2312)"
               id="g2496"><g
                 id="g2372"><g
                   clip-path="url(#clipPath2316)"
                   id="g2370"><g
                     id="g2368"><g
                       id="g2354" /><g
                       id="g2366"><g
                         clip-path="url(#clipPath2320)"
                         opacity="0.25"
                         id="g2364"><g
                           id="g2362"><g
                             clip-path="url(#clipPath2324)"
                             id="g2360"><g
                               transform="translate(394.3596,233.8719)"
                               id="g2358"><path
                                 d="m 0,0 v 136.84 l -99.101,68.42 -99.102,-68.42 V 0 l 99.102,-68.42 z"
                                 style="fill:none;stroke:#1b56e6;stroke-width:2;stroke-linecap:butt;stroke-linejoin:miter;stroke-miterlimit:10;stroke-dasharray:none;stroke-opacity:1"
                                 id="path2356" /></g></g></g></g></g></g></g></g><text
                 transform="matrix(0.99996856,-0.00792999,-0.00792999,-0.99996856,238.9027,300.1978)"
                 style="font-variant:normal;font-weight:bold;font-stretch:normal;font-size:10px;font-family:'Helvetica 55 Roman';-inkscape-font-specification:HelveticaNeue-Bold;writing-mode:lr-tb;fill:#1b56e6;fill-opacity:1;fill-rule:nonzero;stroke:none"
                 id="text2376"><tspan
                   x="0 7.4100108 11.120016 16.860023 22.600033 26.120037 28.700041 34.630051 40.740059 43.520061 49.450073 55.190079 63.33009 66.110092 68.690102 74.62011 78.140114 83.880119 87.770126 91.100128 96.840141 102.58015 108.32016"
                   y="0"
                   sodipodi:role="line"
                   id="tspan2374">Creating new interfaces</tspan></text><text
                 transform="matrix(0.99996856,-0.00792999,-0.00792999,-0.99996856,319.67121,239.1453)"
                 style="font-variant:normal;font-weight:normal;font-stretch:normal;font-size:10px;font-family:'Helvetica Neue';-inkscape-font-specification:HelveticaNeue;writing-mode:lr-tb;fill:#1b56e6;fill-opacity:1;fill-rule:nonzero;stroke:none"
                 id="text2382"><tspan
                   x="0 8.7100124 14.08002 19.450027 25.010036 30.380043 35.940052 38.160053 43.160061 46.310066 48.530071 53.900078"
                   y="0"
                   sodipodi:role="line"
                   id="tspan2378">Mechanistic </tspan><tspan
                   x="11.950017 20.48003 26.220037 32.150047 37.520054 39.740059"
                   y="14.00002"
                   sodipodi:role="line"
                   id="tspan2380">models</tspan></text><g
                 id="g2398"><g
                   clip-path="url(#clipPath2328)"
                   id="g2396"><g
                     id="g2394"><g
                       id="g2384" /><g
                       id="g2392"><g
                         clip-path="url(#clipPath2332)"
                         opacity="0.199997"
                         id="g2390"><g
                           transform="translate(324.2187,274.9356)"
                           id="g2388"><path
                             d="m 0,0 -23.747,-41.129 v -0.003 L 0,-82.262 H 47.494 L 71.241,-41.131 47.494,0 Z"
                             style="fill:#1b56e6;fill-opacity:1;fill-rule:nonzero;stroke:none"
                             id="path2386" /></g></g></g></g></g></g><text
                 transform="matrix(0.99996856,-0.00792999,-0.00792999,-0.99996856,214.877,239.142)"
                 style="font-variant:normal;font-weight:normal;font-stretch:normal;font-size:10px;font-family:'Helvetica Neue';-inkscape-font-specification:HelveticaNeue;writing-mode:lr-tb;fill:#1b56e6;fill-opacity:1;fill-rule:nonzero;stroke:none"
                 id="text2404"><tspan
                   x="0 7.04001 12.410018 15.560022 20.930031 24.820036 30.750044 34.080048 36.300053 41.30006 46.670067 52.230076"
                   y="0"
                   sodipodi:role="line"
                   id="tspan2400">Data-driven </tspan><tspan
                   x="11.110016 19.640028 25.380037 31.310045 36.680054 38.900055"
                   y="14.00002"
                   sodipodi:role="line"
                   id="tspan2402">models</tspan></text><g
                 id="g2420"><g
                   clip-path="url(#clipPath2336)"
                   id="g2418"><g
                     id="g2416"><g
                       id="g2406" /><g
                       id="g2414"><g
                         clip-path="url(#clipPath2340)"
                         opacity="0.199997"
                         id="g2412"><g
                           transform="translate(218.5929,274.9356)"
                           id="g2410"><path
                             d="M 0,0 -23.747,-41.131 0,-82.262 H 47.494 L 71.241,-41.131 47.494,0 Z"
                             style="fill:#1b56e6;fill-opacity:1;fill-rule:nonzero;stroke:none"
                             id="path2408" /></g></g></g></g></g></g><text
                 transform="matrix(0.99996856,-0.00792999,-0.00792999,-0.99996856,210.3361,368.0008)"
                 style="font-variant:normal;font-weight:normal;font-stretch:normal;font-size:10px;font-family:'Helvetica Neue';-inkscape-font-specification:HelveticaNeue;writing-mode:lr-tb;fill:#1b56e6;fill-opacity:1;fill-rule:nonzero;stroke:none"
                 id="text2424"><tspan
                   x="0 6.4800096 9.070013 11.850018 15.000022 20.370029 25.370037 30.740044 36.11005 39.261055 44.631065 50.191071 55.561081 58.891087"
                   y="0"
                   sodipodi:role="line"
                   id="tspan2422">AI researchers</tspan></text><g
                 id="g2452"><g
                   clip-path="url(#clipPath2344)"
                   id="g2450"><g
                     id="g2436"><g
                       id="g2426" /><g
                       id="g2434"><g
                         clip-path="url(#clipPath2348)"
                         opacity="0.199997"
                         id="g2432"><g
                           transform="translate(218.538,410.58)"
                           id="g2430"><path
                             d="M 0,0 -23.747,-41.131 0,-82.262 H 47.494 L 71.24,-41.131 47.494,0 Z"
                             style="fill:#1b56e6;fill-opacity:1;fill-rule:nonzero;stroke:none"
                             id="path2428" /></g></g></g></g><g
                     id="g2448"><g
                       id="g2438" /><g
                       id="g2446"><g
                         clip-path="url(#clipPath2352)"
                         opacity="0.199997"
                         id="g2444"><g
                           transform="translate(324.1629,410.58)"
                           id="g2442"><path
                             d="M 0,0 -23.746,-41.131 0,-82.262 H 47.494 L 71.241,-41.131 47.494,0 Z"
                             style="fill:#1b56e6;fill-opacity:1;fill-rule:nonzero;stroke:none"
                             id="path2440" /></g></g></g></g></g></g><text
                 transform="matrix(0.99996856,-0.00792999,-0.00792999,-0.99996856,330.7994,376.2563)"
                 style="font-variant:normal;font-weight:normal;font-stretch:normal;font-size:10px;font-family:'Helvetica Neue';-inkscape-font-specification:HelveticaNeue;writing-mode:lr-tb;fill:#1b56e6;fill-opacity:1;fill-rule:nonzero;stroke:none"
                 id="text2458"><tspan
                   x="0 7.04001 12.780019 21.31003 26.680038 28.900042 34.460049"
                   y="0"
                   sodipodi:role="line"
                   id="tspan2454">Domain </tspan><tspan
                   x="-8.8800125 -5.7300081 -0.36000052 4.6400065 10.010015 15.380022 18.530027 23.900034 29.460043 34.830051 38.160053"
                   y="14.00002"
                   sodipodi:role="line"
                   id="tspan2456">researchers</tspan></text><text
                 transform="matrix(1,0,0,-1,199.3144,148.6109)"
                 style="font-variant:normal;font-weight:normal;font-stretch:normal;font-size:10px;font-family:'Helvetica Neue';-inkscape-font-specification:HelveticaNeue;writing-mode:lr-tb;fill:#1d1d1b;fill-opacity:1;fill-rule:nonzero;stroke:none"
                 id="text2494"><tspan
                   x="0 2.5899999 8.1499996 11.3 16.67 22.41 25.74 31.110001 34.259998 36.48 42.040001 47.779999 50.560001 59.09 64.830002 70.760002 76.129997 78.349998 80.57 82.790001 88.349998 94.089996 96.870003 102.24 108.17 114.1 117.251 122.991 128.36099 133.731 139.291 144.661 149.661 152.44099 155.591 161.33099 164.11099 169.481 172.631 178.00101 183.371 186.521 191.89101"
                   y="0"
                   sodipodi:role="line"
                   id="tspan2460">Integrating modelling approaches to create </tspan><tspan
                   x="2.9400001 8.3100004 11.09 16.459999 22.200001 27.76 30.91 33.130001 38.689999 44.25 49.810001 58.34 61.119999 66.860001 69.82 72.599998 81.129997 86.5 89.650002 95.209999 100.95 106.88 111.88 114.66 117.62 120.77 126.51 135.03999 137.82001 143.75 149.12 152.27 157.64 161.53 167.46001 170.78999 173.00999 178.00999 183.38 188.94"
                   y="14"
                   sodipodi:role="line"
                   id="tspan2462">a continuum of methods from data-driven </tspan><tspan
                   x="61.849998 65 70.739998 73.519997 82.050003 87.419998 92.790001 98.349998 103.72 109.28 111.5 116.5 119.65 121.87 127.24 130.02"
                   y="28"
                   sodipodi:role="line"
                   id="tspan2464">to mechanistic. </tspan><tspan
                   x="-14.51 -11.92 -6.3600001 -3.21 2.1600001 5.3109999 11.241 13.461 18.461 23.830999 26.051001 31.981001 34.201 36.421001 41.980999 47.351002 50.681 55.681 58.460999 63.831001 69.570999 71.791 74.011002 79.380997 85.310997 91.051003 94.380997 99.750999 102.901 105.121 110.861 116.421 121.421 124.201 127.351 133.091 135.871 141.241 146.981 150.871 156.80099 162.17101 167.17101 169.39101 175.131 180.69099 183.47099 189.03101 194.771 199.771 205.14101 207.36099"
                   y="-318.35999"
                   sodipodi:role="line"
                   id="tspan2466">Interdisciplinary collaborations to co-design novel </tspan><tspan
                   x="49.189999 55.669998 58.259998 62.150002 67.519997 73.080002 78.449997 84.379997 86.599998 91.970001 97.900002 100.68 105.68 111.42 113.64 119.2 122.35 124.57 130.31 135.87 140.87"
                   y="-304.35999"
                   sodipodi:role="line"
                   id="tspan2468">AI-enabled solutions.</tspan><tspan
                   x="210.28999 216.39999 221.58 224.73 228.06 233.42999 238.8 241.95 244.17 249.73 255.47 258.25 260.47 266.03 271.03 273.25 278.98999 284.54999 287.70001 292.70001 295.48001 298.44 301.591 307.33099 315.86099"
                   y="-190.72"
                   sodipodi:role="line"
                   id="tspan2470">Extracting insights from </tspan><tspan
                   x="210.28999 216.22 221.59 224.74001 230.11 234 239.92999 243.25999 245.48 250.48 255.85001 261.41 264.19 272.72 278.45999 284.39001 289.76001 291.98001 296.98001 299.76001 305.13 310.69 316.62"
                   y="-176.72"
                   sodipodi:role="line"
                   id="tspan2472">data-driven models and </tspan><tspan
                   x="210.28999 213.25 218.62 223.99001 229.92 232.14 237.7 243.44 246.22 249.37 254.92999 260.29999 268.82999 271.60999 273.82999 279.39001 282.54001 288.28 291.06 296.98999 302.73001 311.26001 316.63 318.85001 324.41"
                   y="-162.72"
                   sodipodi:role="line"
                   id="tspan2474">feeding them into domain </tspan><tspan
                   x="210.28999 218.82001 224.56 230.49001 235.86 238.08 243.08 245.86 249.00999 254.75 257.53 262.89999 266.05099 271.42099 276.79099 279.94101 285.311 288.091 296.621 302.36099 305.51199 310.88199"
                   y="-148.72"
                   sodipodi:role="line"
                   id="tspan2476">models to create more </tspan><tspan
                   x="210.28999 215.66 218.44 221.39999 226.77 232.14 235.28999 237.50999 242.50999 247.88 250.66 255.66 260.66 265.66 268.81 274.17999 282.70999 287.70999 290.48999"
                   y="-134.72"
                   sodipodi:role="line"
                   id="tspan2478">effective systems. </tspan><tspan
                   x="-140.11 -133.07001 -127.7 -122.7 -117.33 -115.11 -109.37 -103.44 -101.22 -95.660004 -89.919998 -87.139999 -81.580002 -79.360001 -73.620003 -68.059998 -64.169998 -58.240002 -52.869999 -49.540001 -46.580002 -40.84 -37.509998 -28.98 -26.76 -21.200001 -15.46"
                   y="-190.72"
                   sodipodi:role="line"
                   id="tspan2480">Developing high-performing </tspan><tspan
                   x="-140.11 -133.63 -131.03999 -128.25999 -119.73 -114.36 -111.21 -105.65 -99.910004 -93.980003 -88.980003 -86.199997 -80.830002 -75.269997 -69.339996 -66.559998 -63.41 -57.669998 -51.93 -49.709999 -44.709999 -41.93"
                   y="-176.72"
                   sodipodi:role="line"
                   id="tspan2482">AI methods and tools, </tspan><tspan
                   x="-140.11 -136.96001 -131.39999 -128.25 -122.51 -116.95 -111.21 -105.65 -102.87 -96.940002 -91.379997 -89.160004 -86.940002 -81.010002 -78.790001 -73.230003 -67.489998 -64.709999 -59.34 -56.561001 -53.601002 -48.230999 -42.861 -39.710999 -37.491001 -32.491001 -27.121"
                   y="-162.72"
                   sodipodi:role="line"
                   id="tspan2484">through building effective </tspan><tspan
                   x="-140.11 -135.11 -132.89 -124.36 -118.8 -116.58 -111.21 -108.06 -105.84 -100.1 -94.540001 -89.540001 -86.760002 -83.980003 -78.050003 -72.68 -67.68 -62.310001 -60.09 -54.349998 -48.419998 -46.200001 -40.639999 -34.900002"
                   y="-148.72"
                   sodipodi:role="line"
                   id="tspan2486">simulations, developing </tspan><tspan
                   x="-140.11 -134.74001 -129.37 -123.81 -118.81 -113.44 -111.22 -108.44 -99.910004 -94.540001 -89.169998 -83.610001 -81.389999 -75.830002 -70.459999 -67.68 -65.459999 -60.09 -54.720001 -51.210999 -45.651001 -43.431 -37.870998 -32.131001 -29.351"
                   y="-134.72"
                   sodipodi:role="line"
                   id="tspan2488">causal machine learning, </tspan><tspan
                   x="-140.11 -134.89 -129.48 -123.7 -121.07 -115.85 -110.44 -105.22 -99.629997 -93.849998 -91.779999 -86.370003 -80.779999 -78.150002 -72.370003 -66.779999 -58.400002 -53.18 -51.110001 -45.700001"
                   y="-120.72"
                   sodipodi:role="line"
                   id="tspan2490">and encoding domain </tspan><tspan
                   x="-140.11 -135.07001 -129.66 -124.07 -116.64 -114.57 -109.35 -103.57 -97.980003 -92.760002 -90.129997"
                   y="-106.72"
                   sodipodi:role="line"
                   id="tspan2492">knowledge. </tspan></text></g></g></g></g></g></g></svg>
